<?xml version="1.0" encoding="utf-8"?>
<!-- Generator: Adobe Illustrator 15.1.0, SVG Export Plug-In . SVG Version: 6.00 Build 0)  -->
<!DOCTYPE svg PUBLIC "-//W3C//DTD SVG 1.1//EN" "http://www.w3.org/Graphics/SVG/1.1/DTD/svg11.dtd">
<svg version="1.1" id="Layer_1" xmlns="http://www.w3.org/2000/svg" xmlns:xlink="http://www.w3.org/1999/xlink" x="0px" y="0px"
	 width="20px" height="20px" viewBox="0 0 20 20" enable-background="new 0 0 20 20" xml:space="preserve">
<g id="random">
	<path d="M0.715,6.526h2.982L5.446,8.65l2.021-2.455L4.881,3.054H0.715C0.322,3.054,0,3.444,0,3.922v1.736
		C0,6.136,0.322,6.526,0.715,6.526z"/>
	<path d="M15.727,6.526v2.605c0,0.478,0.227,0.593,0.506,0.253l3.56-3.981c0.277-0.337,0.277-0.891,0-1.228l-3.56-3.982
		c-0.279-0.337-0.506-0.223-0.506,0.256v2.604h-3.451L3.697,13.473H0.715C0.322,13.473,0,13.863,0,14.341v1.737
		c0,0.478,0.322,0.868,0.715,0.868h4.166l8.578-10.42H15.727z"/>
	<path d="M16.232,10.614c-0.279-0.338-0.506-0.224-0.506,0.254v2.604h-2.268l-1.748-2.124l-2.022,2.456l2.586,3.142h3.451v2.604
		c0,0.478,0.227,0.593,0.506,0.254l3.56-3.981c0.277-0.338,0.277-0.892,0-1.229L16.232,10.614z"/>
</g>
</svg>
